<svg width="70" height="40" viewBox="0 0 70 40" fill="none" xmlns="http://www.w3.org/2000/svg">
<g clip-path="url(#clip0_391_15)">
<path d="M37.2554 1.61549C38.1806 0.653018 39.4371 0.112305 40.7455 0.112305C46.6321 0.112305 52.1796 0.112308 57.6427 0.112319C68.6305 0.112342 74.1327 13.9325 66.3632 22.0152L49.4392 39.6213C48.6623 40.4296 47.3338 39.8571 47.3338 38.714V23.2072L49.2896 21.1725C50.8435 19.556 49.743 16.7919 47.5454 16.7919H22.667L37.2554 1.61549Z" fill="white"/>
<path d="M32.7449 38.3842C31.8198 39.3467 30.5633 39.8874 29.2549 39.8874C23.3683 39.8874 17.8208 39.8874 12.3577 39.8874C1.36983 39.8873 -4.13236 26.0672 3.63721 17.9844L20.5612 0.378369C21.3381 -0.429908 22.6666 0.142547 22.6666 1.28562L22.6667 16.7923L20.7108 18.8271C19.1569 20.4437 20.2574 23.2077 22.455 23.2077L47.3335 23.2076L32.7449 38.3842Z" fill="white"/>
</g>
<defs>
<clipPath id="clip0_391_15">
<rect width="70" height="40" fill="white"/>
</clipPath>
</defs>
</svg>
