<svg width="73" height="15" viewBox="0 0 73 15" fill="none" xmlns="http://www.w3.org/2000/svg">
<path d="M65.5 0L67.1839 5.18237H72.6329L68.2245 8.38525L69.9084 13.5676L65.5 10.3647L61.0916 13.5676L62.7755 8.38525L58.3671 5.18237H63.8161L65.5 0Z" fill="#21693D"/>
<path d="M50.5 0L52.1839 5.18237H57.6329L53.2245 8.38525L54.9084 13.5676L50.5 10.3647L46.0916 13.5676L47.7755 8.38525L43.3671 5.18237H48.8161L50.5 0Z" fill="#21693D"/>
<path d="M36.5 0L38.1839 5.18237H43.6329L39.2245 8.38525L40.9084 13.5676L36.5 10.3647L32.0916 13.5676L33.7755 8.38525L29.3671 5.18237H34.8161L36.5 0Z" fill="#21693D"/>
<path d="M22.5 0L24.1839 5.18237H29.6329L25.2245 8.38525L26.9084 13.5676L22.5 10.3647L18.0916 13.5676L19.7755 8.38525L15.3671 5.18237H20.8161L22.5 0Z" fill="#21693D"/>
<path d="M7.5 0L9.18386 5.18237H14.6329L10.2245 8.38525L11.9084 13.5676L7.5 10.3647L3.09161 13.5676L4.77547 8.38525L0.367076 5.18237H5.81614L7.5 0Z" fill="#21693D"/>
</svg>
